<?xml version="1.0" encoding="UTF-8"?>
<svg id="Camada_1" data-name="Camada 1" xmlns="http://www.w3.org/2000/svg" xmlns:xlink="http://www.w3.org/1999/xlink" viewBox="0 0 235.2 181.81">
  <defs>
    <style>
      .cls-1 {
        fill: url(#Gradiente_sem_nome_147);
      }
    </style>
    <linearGradient id="Gradiente_sem_nome_147" data-name="Gradiente sem nome 147" x1="0" y1="90.91" x2="235.2" y2="90.91" gradientUnits="userSpaceOnUse">
      <stop offset=".28" stop-color="#202560"/>
      <stop offset=".44" stop-color="#231b6e"/>
      <stop offset=".73" stop-color="#2e0193"/>
      <stop offset=".75" stop-color="#2f0096"/>
    </linearGradient>
  </defs>
  <path class="cls-1" d="M203.4,0H31.79C14.23,0,0,14.23,0,31.79v118.23c0,17.56,14.23,31.79,31.79,31.79h171.61c17.56,0,31.79-14.23,31.79-31.79V31.79c0-17.56-14.23-31.79-31.79-31.79ZM216.4,148.84c0,7.14-5.79,12.93-12.93,12.93h-9.63v-9.29c-9.21,6.57-20.38,10.27-32.18,10.27-13.25,0-26.08-4.77-36.12-13.43l-2.44-2.11,1.8-2.68,8.89-13.24,2.42-3.6,2.7,2.59c5.95,5.72,13.79,9.22,22.04,9.4,16.94.36,31.13-12.18,32.9-28.91v-6.85c-1.75-16.5-15.56-28.93-32.18-28.93s-31.37,13.43-32.29,30.59v.14c-.03.47-.05,1-.05,1.63s.01,1.15.04,1.63v.12s0,.11,0,.11v.13c-.34,9.76-3.26,19.26-8.44,27.48-10.21,16.24-27.75,25.93-46.91,25.93-11.98,0-23.3-3.82-32.58-10.58v9.59h-9.63c-7.14,0-12.92-5.78-12.93-12.92l-.07-116.85c0-7.14,5.79-12.94,12.93-12.94h9.62v43.53c9.55-7,21.07-10.74,33.14-10.64,13.35.11,26.17,5.24,36.28,13.95l1.83,1.57-1.8,2.68-8.9,13.25-2.41,3.59-3.13-2.99c-6.06-5.81-13.99-9-22.33-9-18.62,0-33.61,15.8-32.27,34.7,1.15,16.22,14.51,29.23,30.76,29.97,17.88.81,32.85-12.89,33.81-30.55v-.14c.03-.47.05-1,.05-1.63s-.01-1.16-.04-1.63v-.12s0-.11,0-.11v-.13c.34-9.75,3.27-19.26,8.46-27.49,10.2-16.24,27.73-25.93,46.9-25.93,11.67,0,22.84,3.61,32.17,10.29V19.06h9.64c7.14,0,12.93,5.79,12.93,12.93v116.85Z"/>
</svg>