<?xml version="1.0" encoding="UTF-8"?>
<svg id="Camada_1" data-name="Camada 1" xmlns="http://www.w3.org/2000/svg" viewBox="0 0 344.13 74.59">
  <defs>
    <style>
      .cls-1 {
        fill: #e2e2e2;
      }
    </style>
  </defs>
  <path class="cls-1" d="M83.45,0H13.04C5.84,0,0,5.84,0,13.04v48.5c0,7.2,5.84,13.04,13.04,13.04h70.4c7.2,0,13.04-5.84,13.04-13.04V13.04c0-7.2-5.84-13.04-13.04-13.04ZM88.78,61.06c0,2.93-2.37,5.3-5.3,5.3h-3.95v-3.81c-3.78,2.7-8.36,4.21-13.2,4.21-5.43,0-10.7-1.96-14.82-5.51l-1-.86.74-1.1,3.65-5.43.99-1.48,1.11,1.06c2.44,2.35,5.66,3.78,9.04,3.85,6.95.15,12.77-5,13.5-11.86v-2.81c-.72-6.77-6.38-11.87-13.2-11.87s-12.87,5.51-13.25,12.55h0s0,.06,0,.06c-.01.19-.02.41-.02.67s0,.47.02.67v.05s0,.04,0,.04v.05c-.14,4-1.34,7.9-3.46,11.27-4.19,6.66-11.39,10.64-19.25,10.64-4.91,0-9.56-1.57-13.37-4.34v3.94h-3.95c-2.93,0-5.3-2.37-5.3-5.3l-.03-47.94c0-2.93,2.37-5.31,5.3-5.31h3.94v17.86c3.92-2.87,8.64-4.41,13.59-4.37,5.48.04,10.73,2.15,14.88,5.72l.75.65-.74,1.1-3.65,5.44-.99,1.47-1.28-1.23c-2.49-2.38-5.74-3.69-9.16-3.69-7.64,0-13.79,6.48-13.24,14.23.47,6.66,5.95,11.99,12.62,12.29,7.33.33,13.48-5.29,13.87-12.53h0s0-.06,0-.06c.01-.19.02-.41.02-.67s0-.47-.02-.67v-.05s0-.04,0-.04v-.05c.14-4,1.34-7.9,3.47-11.28,4.19-6.66,11.38-10.64,19.24-10.64,4.79,0,9.37,1.48,13.2,4.22V7.82h3.95c2.93,0,5.3,2.37,5.3,5.3v47.94Z"/>
  <path class="cls-1" d="M120.75,15.19v16.28c1.49-1.49,3.1-2.6,4.83-3.35,1.73-.74,3.58-1.12,5.55-1.12,4.28,0,7.92,1.62,10.92,4.86,3,3.24,4.49,7.39,4.49,12.45s-1.55,8.97-4.64,12.26c-3.1,3.29-6.77,4.93-11.01,4.93-1.89,0-3.65-.34-5.28-1.01-1.63-.67-3.25-1.77-4.86-3.3v3.47h-3.67c-2.49,0-4.5-2.02-4.5-4.5V19.7c0-2.49,2.02-4.5,4.5-4.5h3.67ZM129.4,34.61c-2.59,0-4.74.88-6.45,2.65-1.71,1.77-2.56,4.08-2.56,6.94s.85,5.27,2.56,7.07c1.7,1.79,3.85,2.69,6.43,2.7,2.15,0,4.22-.75,5.81-2.19,2.09-1.9,3.14-4.42,3.14-7.55,0-2.81-.84-5.12-2.53-6.92-1.69-1.8-3.82-2.7-6.39-2.7ZM149.61,27.86h8.32v15.8c0,3.08.21,5.21.63,6.41.42,1.2,1.1,2.13,2.04,2.79.94.66,2.09,1,3.46,1s2.53-.33,3.49-.98c.96-.65,1.67-1.61,2.13-2.88.34-.94.51-2.96.51-6.06v-16.07h8.23v13.9c0,5.73-.45,9.65-1.36,11.76-1.11,2.57-2.73,4.55-4.89,5.93-2.15,1.38-4.89,2.07-8.2,2.07-3.6,0-6.51-.8-8.73-2.41-2.22-1.61-3.78-3.85-4.69-6.72-.64-1.99-.97-5.61-.97-10.86v-13.66ZM207.21,15.19h8.23v45.47h-8.23v-3.47c-1.61,1.53-3.22,2.63-4.83,3.3-1.62.67-3.37,1.01-5.26,1.01-4.24,0-7.9-1.64-10.99-4.93-3.09-3.29-4.64-7.37-4.64-12.26s1.5-9.22,4.49-12.45c2.99-3.24,6.63-4.86,10.9-4.86,1.97,0,3.81.37,5.54,1.12,1.73.74,3.32,1.86,4.79,3.35V15.19ZM198.56,34.61c-2.54,0-4.66.9-6.34,2.7-1.68,1.8-2.52,4.11-2.52,6.92s.86,5.17,2.57,7c1.71,1.83,3.82,2.74,6.33,2.74s4.73-.9,6.43-2.7c1.7-1.8,2.55-4.16,2.55-7.07s-.85-5.17-2.55-6.94c-1.7-1.77-3.86-2.65-6.46-2.65ZM244.28,15.19h8.23v45.47h-8.23v-3.47c-1.61,1.53-3.22,2.63-4.83,3.3s-3.37,1.01-5.26,1.01c-4.24,0-7.9-1.64-10.99-4.93-3.09-3.29-4.64-7.37-4.64-12.26s1.5-9.22,4.49-12.45c2.99-3.24,6.63-4.86,10.9-4.86,1.97,0,3.81.37,5.54,1.12,1.73.74,3.32,1.86,4.79,3.35V15.19ZM235.62,34.61c-2.54,0-4.66.9-6.34,2.7-1.68,1.8-2.52,4.11-2.52,6.92s.86,5.17,2.57,7c1.71,1.83,3.82,2.74,6.33,2.74s4.73-.9,6.43-2.7c1.7-1.8,2.55-4.16,2.55-7.07s-.85-5.17-2.55-6.94c-1.7-1.77-3.86-2.65-6.46-2.65ZM281.37,27.86h8.2v28.1c0,5.55-1.12,9.63-3.35,12.24-3,3.54-7.51,5.31-13.54,5.31-3.22,0-5.92-.4-8.11-1.21-2.19-.8-4.04-1.99-5.55-3.54-1.51-1.56-2.62-3.45-3.35-5.68h9.08c.8.92,1.84,1.62,3.11,2.1,1.27.47,2.76.71,4.49.71,2.21,0,3.99-.34,5.34-1.03,1.35-.68,2.3-1.57,2.85-2.65s.83-2.96.83-5.61c-1.45,1.45-2.97,2.49-4.55,3.12-1.59.63-3.39.95-5.4.95-4.4,0-8.12-1.59-11.16-4.76-3.04-3.18-4.55-7.2-4.55-12.06,0-5.21,1.61-9.39,4.83-12.54,2.91-2.85,6.39-4.28,10.43-4.28,1.89,0,3.67.35,5.35,1.04,1.68.69,3.36,1.83,5.05,3.42v-3.62ZM272.84,34.7c-2.59,0-4.73.87-6.42,2.61-1.69,1.74-2.53,3.93-2.53,6.56s.86,4.98,2.59,6.72c1.73,1.75,3.9,2.62,6.51,2.62s4.66-.85,6.32-2.56c1.66-1.71,2.49-3.95,2.49-6.72s-.83-4.96-2.5-6.66c-1.67-1.71-3.82-2.56-6.45-2.56ZM327.06,46.65h-26.45c.38,2.33,1.4,4.19,3.06,5.56,1.66,1.38,3.77,2.07,6.35,2.07,3.08,0,5.72-1.08,7.93-3.23l6.94,3.26c-1.73,2.45-3.8,4.27-6.21,5.44-2.41,1.18-5.28,1.76-8.59,1.76-5.15,0-9.34-1.62-12.57-4.87-3.24-3.25-4.86-7.31-4.86-12.2s1.61-9.16,4.84-12.47c3.23-3.31,7.27-4.96,12.14-4.96,5.17,0,9.37,1.65,12.61,4.96,3.24,3.31,4.86,7.67,4.86,13.1l-.03,1.57ZM318.83,40.16c-.54-1.83-1.62-3.32-3.22-4.46s-3.46-1.72-5.57-1.72c-2.3,0-4.31.64-6.04,1.93-1.09.8-2.09,2.22-3.02,4.25h17.85ZM331.02,15.77h3.73c2.49,0,4.5,2.02,4.5,4.5v7.59h4.89v7.09h-4.89v21.22c0,2.49-2.02,4.5-4.5,4.5h-3.73v-25.72h-4.22v-7.09h4.22v-12.09Z"/>
</svg>